<?xml version="1.0" standalone="no"?><!DOCTYPE svg PUBLIC "-//W3C//DTD SVG 1.1//EN" "http://www.w3.org/Graphics/SVG/1.1/DTD/svg11.dtd"><svg t="1664687901429" class="icon" viewBox="0 0 1024 1024" version="1.1" xmlns="http://www.w3.org/2000/svg" p-id="2422" xmlns:xlink="http://www.w3.org/1999/xlink" width="200" height="200"><path d="M768 832l-64-32-48 32-37.28-49.6 28.16-36.96 24.32-32a64 64 0 0 1 36.64-23.68 48 48 0 0 1 25.12 24.48l20.64 71.04z" fill="#CEE6F4" p-id="2423"></path><path d="M828.16 786.88L768 832l-13.6-46.4-20.64-71.04a48 48 0 0 0-25.12-24.48 64 64 0 0 1 66.72 24.48z" fill="#ACD5EA" p-id="2424"></path><path d="M944 944h-144l-32.64-112.32 0.64 0.32 60.16-45.12L944 944z" fill="#0A2872" p-id="2425"></path><path d="M800 944H496l90.88-119.68 31.84-41.92L656 832l48-32 63.36 31.68L800 944z" fill="#1B45AF" p-id="2426"></path><path d="M576 304l32 48H448v-96h160l-32 48z" fill="#D30B32" p-id="2427"></path><path d="M512 304l32 48h-96v-96h96l-32 48z" fill="#B7041E" p-id="2428"></path><path d="M590.24 672h-71.04l-61.6-138.72a41.92 41.92 0 0 0-26.56-20.48 54.88 54.88 0 0 1 8.96 0 54.24 54.24 0 0 1 43.2 21.28z" fill="#ACD5EA" p-id="2429"></path><path d="M519.2 672H512l-14.72 9.76L464 704l-8.96-17.76L432 640l-25.6 51.36L384 736l-26.4-39.52L352 688l-8 9.92L288 768l-24.64-61.6 133.44-173.12a54.08 54.08 0 0 1 34.24-20.48 41.92 41.92 0 0 1 26.56 20.48z" fill="#CEE6F4" p-id="2430"></path><path d="M586.88 824.32L496 944H80l183.36-237.6L288 768l56-70.08 8-9.92 5.6 8.48L384 736l22.4-44.64L432 640l23.04 46.24L464 704l33.28-22.24L512 672h7.2l3.2 7.2 64.48 145.12z" fill="#1B45AF" p-id="2431"></path><path d="M646.88 745.44l-60 78.88-64.48-145.12-3.2-7.2h71.04l56.64 73.44z" fill="#0A2872" p-id="2432"></path><path d="M944 960h-144a16 16 0 0 1-16-11.52l-9.28-32a16 16 0 0 1 30.72-8.96l6.56 20.48H912l-150.24-204.32a46.72 46.72 0 0 0-12.64-11.84l42.88 147.68a16 16 0 1 1-30.72 8.96L718.24 720a33.12 33.12 0 0 0-16-16 16 16 0 0 1 1.6-30.56 80 80 0 0 1 83.2 30.56l169.92 230.56a16 16 0 0 1 1.28 16A16 16 0 0 1 944 960zM496 960H80a16 16 0 0 1 0-32h408l138.72-182.56-156.16-202.4A39.36 39.36 0 0 0 433.6 528a38.4 38.4 0 0 0-24.16 14.4L203.68 809.76a16 16 0 1 1-25.28-19.52L384 523.52a70.24 70.24 0 0 1 44.32-26.56 67.2 67.2 0 0 1 11.68-0.96 70.72 70.72 0 0 1 56 27.52L659.52 736a16 16 0 0 1 0 19.52L508.8 953.6a16 16 0 0 1-12.8 6.4z" fill="#0D182D" p-id="2433"></path><path d="M800 960H496a16 16 0 0 1-14.4-8.96 16 16 0 0 1 1.6-16L658.4 704A81.12 81.12 0 0 1 704 674.24a14.24 14.24 0 0 1 8.96 0 63.04 63.04 0 0 1 34.08 32 13.92 13.92 0 0 1 1.12 2.72l43.52 149.76a16 16 0 1 1-30.72 8.96L718.24 720a39.2 39.2 0 0 0-11.68-13.44 49.12 49.12 0 0 0-22.56 16L528 928h250.72l-3.36-11.52a16 16 0 0 1 30.72-8.96l9.28 32a16 16 0 0 1-2.56 14.08 16 16 0 0 1-12.8 6.4z" fill="#0D182D" p-id="2434"></path><path d="M496 960H80a16 16 0 0 1-14.4-8.96 16 16 0 0 1 1.76-16l80-103.68a16 16 0 0 1 25.28 19.52L112 928h376l80-105.76-125.12-281.6a27.36 27.36 0 0 0-12.96-11.36 37.92 37.92 0 0 0-20.96 13.76L203.68 809.76a16 16 0 1 1-25.28-19.52L384 523.52a70.24 70.24 0 0 1 44.32-26.56 18.4 18.4 0 0 1 5.92 0 57.76 57.76 0 0 1 36.96 28l0.8 1.6 129.28 291.04a16 16 0 0 1-1.76 16l-90.72 120a16 16 0 0 1-12.8 6.4z" fill="#0D182D" p-id="2435"></path><path d="M288 784h-2.4a16 16 0 0 1-12.48-9.92l-24.64-61.6a16 16 0 1 1 29.76-11.84l14.4 36.16 46.88-58.56A16 16 0 0 1 352 672a16 16 0 0 1 12.64 7.2L382.08 704l35.68-71.36a16 16 0 0 1 28.48 0l24 48 32.96-21.92A16 16 0 0 1 512 656h78.24a16 16 0 0 1 0 32H516.8l-44 29.28a16 16 0 0 1-12.96 2.24 16 16 0 0 1-10.08-8.32L432 675.84l-33.76 67.36a16 16 0 0 1-27.52 1.6l-19.84-29.76-50.4 62.88A16 16 0 0 1 288 784zM656 848a16 16 0 0 1-12.8-6.4l-37.28-49.6a16 16 0 0 1 25.6-19.2l28.16 37.44 35.52-23.52a16 16 0 0 1 16-0.96l55.04 27.52 52.32-39.2a16 16 0 1 1 19.2 25.6L777.6 844.8a16 16 0 0 1-16.8 1.44l-55.68-27.84-40.32 26.88A15.04 15.04 0 0 1 656 848zM448 528a16 16 0 0 1-16-16V224a16 16 0 0 1 32 0v288a16 16 0 0 1-16 16z" fill="#0D182D" p-id="2436"></path><path d="M608 368H448a16 16 0 0 1-16-16v-96a16 16 0 0 1 16-16h48a16 16 0 0 1 0 32h-32v64h114.08l-16-23.2a16 16 0 0 1 0-17.6l16-23.2H544a16 16 0 0 1 0-32h64a16 16 0 0 1 14.08 8.48 16 16 0 0 1-0.8 16L595.2 304l26.08 39.2a16 16 0 0 1 0.8 16A16 16 0 0 1 608 368z" fill="#0D182D" p-id="2437"></path><path d="M240 416h-48a16 16 0 0 1 0-32h48a16 16 0 0 1 0 32zM832 416h-48a16 16 0 0 1 0-32h48a16 16 0 0 1 0 32z" fill="#D1B339" p-id="2438"></path><path d="M240 416h-48a16 16 0 0 1 0-32h48a16 16 0 0 1 0 32zM832 416h-48a16 16 0 0 1 0-32h48a16 16 0 0 1 0 32z" fill="#D1B339" p-id="2439"></path><path d="M240 416h-48a16 16 0 0 1 0-32h48a16 16 0 0 1 0 32zM832 416h-48a16 16 0 0 1 0-32h48a16 16 0 0 1 0 32z" fill="#D1B339" p-id="2440"></path><path d="M240 416h-48a16 16 0 0 1 0-32h48a16 16 0 0 1 0 32zM832 416h-48a16 16 0 0 1 0-32h48a16 16 0 0 1 0 32zM512 144a16 16 0 0 1-16-16V80a16 16 0 0 1 32 0v48a16 16 0 0 1-16 16z" fill="#D1B339" p-id="2441"></path><path d="M512 144a16 16 0 0 1-16-16V80a16 16 0 0 1 32 0v48a16 16 0 0 1-16 16z" fill="#D1B339" p-id="2442"></path><path d="M512 144a16 16 0 0 1-16-16V80a16 16 0 0 1 32 0v48a16 16 0 0 1-16 16z" fill="#D1B339" p-id="2443"></path><path d="M512 144a16 16 0 0 1-16-16V80a16 16 0 0 1 32 0v48a16 16 0 0 1-16 16zM234.88 576a16 16 0 0 1-8-29.92l41.6-24a16 16 0 0 1 16 27.84l-41.6 24a16 16 0 0 1-8 2.08zM747.52 280a16 16 0 0 1-8-29.92l41.6-24a16 16 0 0 1 16 27.84l-41.6 24a16 16 0 0 1-8 2.08z" fill="#D1B339" p-id="2444"></path><path d="M234.88 576a16 16 0 0 1-8-29.92l41.6-24a16 16 0 0 1 16 27.84l-41.6 24a16 16 0 0 1-8 2.08zM747.52 280a16 16 0 0 1-8-29.92l41.6-24a16 16 0 0 1 16 27.84l-41.6 24a16 16 0 0 1-8 2.08z" fill="#D1B339" p-id="2445"></path><path d="M234.88 576a16 16 0 0 1-8-29.92l41.6-24a16 16 0 0 1 16 27.84l-41.6 24a16 16 0 0 1-8 2.08zM747.52 280a16 16 0 0 1-8-29.92l41.6-24a16 16 0 0 1 16 27.84l-41.6 24a16 16 0 0 1-8 2.08z" fill="#D1B339" p-id="2446"></path><path d="M747.52 280a16 16 0 0 1-8-29.92l41.6-24a16 16 0 0 1 16 27.84l-41.6 24a16 16 0 0 1-8 2.08zM648 180.48a16 16 0 0 1-8-2.24 16 16 0 0 1-5.92-21.76l24-41.6a16 16 0 1 1 27.84 16l-24 41.6a16 16 0 0 1-13.92 8z" fill="#D1B339" p-id="2447"></path><path d="M648 180.48a16 16 0 0 1-8-2.24 16 16 0 0 1-5.92-21.76l24-41.6a16 16 0 1 1 27.84 16l-24 41.6a16 16 0 0 1-13.92 8z" fill="#D1B339" p-id="2448"></path><path d="M648 180.48a16 16 0 0 1-8-2.24 16 16 0 0 1-5.92-21.76l24-41.6a16 16 0 1 1 27.84 16l-24 41.6a16 16 0 0 1-13.92 8z" fill="#D1B339" p-id="2449"></path><path d="M648 180.48a16 16 0 0 1-8-2.24 16 16 0 0 1-5.92-21.76l24-41.6a16 16 0 1 1 27.84 16l-24 41.6a16 16 0 0 1-13.92 8zM789.12 576a16 16 0 0 1-8-2.08l-41.6-24a16 16 0 0 1 16-27.84l41.6 24a16 16 0 0 1-8 29.92zM276.48 280a16 16 0 0 1-8-2.08l-41.6-24a16 16 0 1 1 16-27.84l41.6 24a16 16 0 0 1-8 29.92z" fill="#D1B339" p-id="2450"></path><path d="M789.12 576a16 16 0 0 1-8-2.08l-41.6-24a16 16 0 0 1 16-27.84l41.6 24a16 16 0 0 1-8 29.92zM276.48 280a16 16 0 0 1-8-2.08l-41.6-24a16 16 0 1 1 16-27.84l41.6 24a16 16 0 0 1-8 29.92z" fill="#D1B339" p-id="2451"></path><path d="M789.12 576a16 16 0 0 1-8-2.08l-41.6-24a16 16 0 0 1 16-27.84l41.6 24a16 16 0 0 1-8 29.92zM276.48 280a16 16 0 0 1-8-2.08l-41.6-24a16 16 0 1 1 16-27.84l41.6 24a16 16 0 0 1-8 29.92z" fill="#D1B339" p-id="2452"></path><path d="M276.48 280a16 16 0 0 1-8-2.08l-41.6-24a16 16 0 1 1 16-27.84l41.6 24a16 16 0 0 1-8 29.92zM376 180.48a16 16 0 0 1-13.92-8l-24-41.6a16 16 0 1 1 27.84-16l24 41.6a16 16 0 0 1-5.92 21.76 16 16 0 0 1-8 2.24z" fill="#D1B339" p-id="2453"></path><path d="M376 180.48a16 16 0 0 1-13.92-8l-24-41.6a16 16 0 1 1 27.84-16l24 41.6a16 16 0 0 1-5.92 21.76 16 16 0 0 1-8 2.24z" fill="#D1B339" p-id="2454"></path><path d="M376 180.48a16 16 0 0 1-13.92-8l-24-41.6a16 16 0 1 1 27.84-16l24 41.6a16 16 0 0 1-5.92 21.76 16 16 0 0 1-8 2.24z" fill="#D1B339" p-id="2455"></path><path d="M376 180.48a16 16 0 0 1-13.92-8l-24-41.6a16 16 0 1 1 27.84-16l24 41.6a16 16 0 0 1-5.92 21.76 16 16 0 0 1-8 2.24z" fill="#D1B339" p-id="2456"></path><path d="M272 960a16 16 0 0 1-16-16v-48a16 16 0 0 1 32 0v48a16 16 0 0 1-16 16zM352 960a16 16 0 0 1-16-16v-80a16 16 0 0 1 32 0v80a16 16 0 0 1-16 16z" fill="#0D182D" p-id="2457"></path></svg>